<?xml version="1.0" encoding="UTF-8" standalone="no"?>
<!-- Created with Inkscape (http://www.inkscape.org/) -->

<svg
   width="512"
   height="512"
   viewBox="0 0 135.46666 135.46667"
   version="1.1"
   id="svg1"
   xml:space="preserve"
   inkscape:version="1.4.2 (ebf0e940d0, 2025-05-08)"
   sodipodi:docname="thierry_colored.svg"
   xmlns:inkscape="http://www.inkscape.org/namespaces/inkscape"
   xmlns:sodipodi="http://sodipodi.sourceforge.net/DTD/sodipodi-0.dtd"
   xmlns="http://www.w3.org/2000/svg"
   xmlns:svg="http://www.w3.org/2000/svg"><sodipodi:namedview
     id="namedview1"
     pagecolor="#ffffff"
     bordercolor="#000000"
     borderopacity="0.25"
     inkscape:showpageshadow="2"
     inkscape:pageopacity="0.0"
     inkscape:pagecheckerboard="0"
     inkscape:deskcolor="#d1d1d1"
     inkscape:document-units="mm"
     inkscape:zoom="1.3291123"
     inkscape:cx="189.97643"
     inkscape:cy="244.52412"
     inkscape:window-width="1904"
     inkscape:window-height="1043"
     inkscape:window-x="8"
     inkscape:window-y="29"
     inkscape:window-maximized="1"
     inkscape:current-layer="g13"
     showgrid="false" /><defs
     id="defs1" /><g
     inkscape:groupmode="layer"
     id="layer2"
     inkscape:label="thierry"
     transform="translate(4.0726813,3.4908697)"><g
       id="g13"
       inkscape:label="legs"><path
         style="fill:#db6868;fill-opacity:1;stroke:#000000;stroke-width:1;stroke-dasharray:none;stroke-opacity:1"
         d="m 97.109438,66.855479 c 1.896025,0.329743 3.297432,1.236536 3.297432,1.236536 0,0 0.22548,-4.110969 -0.412178,-6.017816 -1.102211,-3.296066 -3.544741,-7.666534 -5.456223,-8.645717 0,0 -21.339343,-11.443301 -32.980749,-14.258744 C 2.8697343,24.976205 46.576257,62.980993 46.576257,62.980993 c -1.566281,1.483845 -5.46693,7.645696 -6.594867,11.788327 -1.039756,3.81876 0.08243,11.046405 0.08243,11.046405 0,0 2.39064,-3.132563 4.121793,-4.698844 l 8.320256,-9.614484 16.991357,10.853118 2.846719,-0.4448 20.816636,-13.877757 z"
         id="path8"
         sodipodi:nodetypes="csccscscc" /><path
         style="fill:#db6868;fill-opacity:1;stroke:#000000;stroke-width:1;stroke-dasharray:none;stroke-opacity:1"
         d="m 87.876622,54.984715 c 3.462306,1.566281 8.817332,8.029595 9.72743,13.519479 0.80928,4.88174 -2.720384,13.024866 -4.286665,14.426276 0,0 -2.404923,-4.655808 -3.641461,-5.562602"
         id="path11"
         sodipodi:nodetypes="cscc" /><path
         style="fill:#db6868;fill-opacity:1;stroke:#000000;stroke-width:1;stroke-linecap:round;stroke-dasharray:none;stroke-opacity:1"
         d="m 80.704702,57.952406 c 1.40141,0.98923 10.925387,12.699475 10.139611,19.784605 -0.769448,6.937897 -12.035636,14.756018 -13.766789,15.168197 0,0 3.297434,-6.18269 2.967691,-8.408458 -1.813589,0 -6.677303,2.22577 -9.809866,3.792051 0,0 1.786841,-7.46709 4.039355,-10.881534 1.55591,-2.358505 0.575511,-4.365915 0.906797,-7.171918 0.298154,-2.525383 1.813587,-5.688073 0.906793,-7.501662"
         id="path12"
         sodipodi:nodetypes="cscccssc"
         inkscape:label="right_pince" /><path
         style="fill:#db6868;fill-opacity:1;stroke:#000000;stroke-width:1;stroke-dasharray:none;stroke-opacity:1"
         d="m 66.03112,64.135094 c 0,0 5.786514,11.932378 3.874484,17.641274 -2.481845,7.410237 -8.655763,15.003325 -17.806143,15.250633 1.483845,-2.637947 5.358331,-6.347562 6.017818,-7.336792 0,0 -8.573329,1.154104 -10.55179,0.412181 0.494615,-2.39064 1.892851,-4.517477 3.297434,-6.429999 2.037006,-2.773646 3.439372,-4.076955 2.779885,-7.374389"
         id="path9"
         sodipodi:nodetypes="cscccsc"
         inkscape:label="left_pince" /><path
         style="fill:#db6868;fill-opacity:1;stroke:#000000;stroke-width:1;stroke-dasharray:none;stroke-opacity:1"
         d="m 60.013302,65.536505 c -2.060896,5.440766 -5.835929,12.581667 -10.634226,17.393965 -1.776951,1.782136 -6.429997,3.95692 -6.429997,3.95692 0,0 1.012259,-6.710655 2.308207,-9.809866 1.852962,-4.431288 4.863713,-8.903072 7.666532,-12.200506"
         id="path7"
         sodipodi:nodetypes="cscsc" /></g><g
       id="g7"
       inkscape:label="coquille"
       style="display:inline"><path
         style="display:inline;fill:#239cad;fill-opacity:1;stroke:#000000;stroke-width:1;stroke-dasharray:none;stroke-opacity:1"
         d="M 100.10657,52.446475 C 86.663704,53.289754 77.509643,59.904076 66.700461,64.088549 58.08507,67.423757 49.458256,64.141 46.183324,62.783821 42.337173,61.18992 36.845533,56.243015 35.439561,52.344637 33.58484,52.238955 30.783073,49.311825 30.143995,46.947235 28.22676,46.563788 26.148415,45.034634 25.764968,42.670044 23.847733,41.967058 23.28293,38.51494 23.219022,36.661613 c 0.830802,-0.639078 4.484522,-2.981346 6.721296,-2.342268 1.853327,-1.853327 6.411147,-2.869632 10.692972,-1.527567 5.58076,-2.822826 11.364808,-2.994056 17.821618,-0.203676 20.265726,-2.647783 36.356095,8.859889 41.651662,19.858373 z"
         id="path1"
         sodipodi:nodetypes="csscccccccc" /><path
         style="display:inline;fill:none;fill-opacity:1;stroke:#000000;stroke-width:1;stroke-dasharray:none;stroke-opacity:1"
         d="m 29.759343,34.210879 c -0.164872,2.885255 -1.401409,6.924613 -3.792049,8.490894"
         id="path6"
         sodipodi:nodetypes="cc" /><path
         style="display:inline;fill:none;fill-opacity:1;stroke:#000000;stroke-width:1;stroke-dasharray:none;stroke-opacity:1"
         d="M 40.393569,32.891907 C 39.157031,37.096136 32.891905,45.834334 30.089086,47.070872"
         id="path5"
         sodipodi:nodetypes="cc" /><path
         style="display:inline;fill:none;fill-opacity:1;stroke:#000000;stroke-width:1;stroke-dasharray:none;stroke-opacity:1"
         d="M 58.364585,32.644598 C 54.242792,39.651646 42.454465,48.966899 35.447417,52.264333"
         id="path4"
         sodipodi:nodetypes="cc" /></g><g
       id="g6"
       inkscape:label="eyes"
       style="display:inline"><path
         style="fill:#000000;fill-opacity:1;stroke:#000000;stroke-width:1;stroke-dasharray:none;stroke-opacity:1"
         d="m 83.368916,51.43855 -2.694885,1.820769 2.426108,2.137286 c 0,0 -0.0047,3.474296 -0.625386,6.338792 -0.477416,1.384506 -2.213007,3.638609 -3.006125,-1.143426 -0.844211,-5.090095 0.282316,-12.374501 0.572368,-14.386507 0.335929,-2.330234 2.301804,-5.597241 3.174673,-2.246228 0.873058,3.351739 0.200989,5.378683 0.153247,7.479314 z"
         id="path3"
         sodipodi:nodetypes="ccccsssc"
         inkscape:label="right_eye" /><path
         style="fill:#000000;fill-opacity:1;stroke:#000000;stroke-width:1;stroke-dasharray:none;stroke-opacity:1"
         d="m 74.55391,51.322563 -2.694885,1.820769 2.426108,2.137286 c 0,0 -0.0047,3.474296 -0.625386,6.338792 -0.477416,1.384506 -2.213007,3.638609 -3.006125,-1.143426 -0.844211,-5.090095 0.282316,-12.374501 0.572368,-14.386507 0.335929,-2.330234 2.301804,-5.597241 3.174673,-2.246228 0.873058,3.351739 0.200989,5.378683 0.153247,7.479314 z"
         id="path2"
         sodipodi:nodetypes="ccccsssc"
         inkscape:label="left_eye" /></g></g></svg>
