<?xml version="1.0" encoding="UTF-8"?>
<svg version="1.1" xmlns="http://www.w3.org/2000/svg" width="2048" height="2048">
<path d="M0 0 C8.82627129 0.88674494 17.61039863 1.6528488 26.47167969 2.09057617 C66.76536436 4.11895054 106.56264786 13.46149708 145.4519043 23.73413086 C152.37288096 25.5511411 159.27218147 27.20112972 166.30517578 28.51782227 C186.06935091 32.24691191 205.26183329 37.90928335 224.24560547 44.4909668 C227.80853472 45.7139048 231.38867858 46.88009243 234.97045898 48.04638672 C270.34240126 59.6298876 305.92212328 73.54989637 338.05517578 92.45532227 C339.37507477 93.2125539 340.69535567 93.96912047 342.01611328 94.72485352 C352.70318058 100.92349495 362.95038126 107.85798603 373.26928711 114.64282227 C376.05459432 116.45494397 378.86256085 118.22676392 381.67626953 119.99438477 C386.72938914 123.20101662 391.57105775 126.62899483 396.36767578 130.20532227 C397.1780127 130.80586426 397.98834961 131.40640625 398.82324219 132.02514648 C406.00552764 137.37046514 413.06255608 142.86501654 420.05517578 148.45532227 C420.95751953 149.16946289 421.85986328 149.88360352 422.78955078 150.61938477 C426.78718833 153.85884968 430.15734723 157.5555535 433.49267578 161.45532227 C436.45305078 164.87805518 439.534041 167.62310516 443.05517578 170.45532227 C448.12701498 175.3925853 452.85057852 180.64518018 457.61328125 185.87670898 C458.98500981 187.37850324 460.36556749 188.87221896 461.74658203 190.36547852 C472.3212257 201.84421386 481.80296661 213.91198216 488.49267578 228.08032227 C488.9600415 229.06887207 489.42740723 230.05742188 489.90893555 231.07592773 C497.95756885 248.54422885 503.17996004 266.4705945 506.05517578 285.45532227 C506.20325684 286.36652832 506.35133789 287.27773438 506.50390625 288.21655273 C512.00988184 322.5503704 510.72062257 357.5509248 496.05517578 389.45532227 C495.68650391 390.27274902 495.31783203 391.09017578 494.93798828 391.93237305 C487.15633729 409.1118176 478.44500838 426.83006404 465.05517578 440.45532227 C464.39517578 440.45532227 463.73517578 440.45532227 463.05517578 440.45532227 C462.72517578 441.44532227 462.39517578 442.43532227 462.05517578 443.45532227 C461.39517578 443.45532227 460.73517578 443.45532227 460.05517578 443.45532227 C460.05517578 444.11532227 460.05517578 444.77532227 460.05517578 445.45532227 C435.73036157 468.55683827 407.302074 475.30448972 374.90023804 474.69232178 C366.80704061 474.46592693 359.68200487 473.05799828 352.05517578 470.45532227 C350.86150391 470.08922852 349.66783203 469.72313477 348.43798828 469.34594727 C320.33903431 459.8822663 295.04791927 442.75187714 272.05517578 424.45532227 C271.13091797 423.72055664 270.20666016 422.98579102 269.25439453 422.22875977 C267.37834301 420.71592248 265.63007275 419.27888717 264.05517578 417.45532227 C264.05517578 416.79532227 264.05517578 416.13532227 264.05517578 415.45532227 C263.52408203 415.24907227 262.99298828 415.04282227 262.44580078 414.83032227 C259.04744142 412.87571035 256.5446165 410.2340851 253.80517578 407.45532227 C253.25087891 406.90875977 252.69658203 406.36219727 252.12548828 405.79907227 C248.05517578 401.70870897 248.05517578 401.70870897 248.05517578 399.45532227 C247.39517578 399.45532227 246.73517578 399.45532227 246.05517578 399.45532227 C244.61704905 397.88591426 243.25487528 396.24658192 241.93017578 394.58032227 C240.72941406 393.07985352 240.72941406 393.07985352 239.50439453 391.54907227 C238.69615234 390.52813477 237.88791016 389.50719727 237.05517578 388.45532227 C235.61806751 386.66334137 234.1805956 384.87165202 232.74267578 383.08032227 C231.51316842 381.53892729 230.28399459 379.99726621 229.05517578 378.45532227 C227.95109375 377.13661133 227.95109375 377.13661133 226.82470703 375.79125977 C225.05517578 373.45532227 225.05517578 373.45532227 225.05517578 371.45532227 C224.39517578 371.45532227 223.73517578 371.45532227 223.05517578 371.45532227 C221.65918182 369.92694957 220.33929929 368.32882127 219.05517578 366.70532227 C218.26240234 365.71145508 217.46962891 364.71758789 216.65283203 363.69360352 C216.23275879 363.16589355 215.81268555 362.63818359 215.37988281 362.09448242 C214.02334782 360.41593913 212.63750387 358.76679181 211.23876953 357.12329102 C210.78050781 356.58349609 210.32224609 356.04370117 209.85009766 355.48754883 C208.54399005 353.9531073 207.23518419 352.42096376 205.92626953 350.88891602 C204.05517578 348.45532227 204.05517578 348.45532227 204.05517578 346.45532227 C203.39517578 346.45532227 202.73517578 346.45532227 202.05517578 346.45532227 C202.05517578 345.79532227 202.05517578 345.13532227 202.05517578 344.45532227 C201.49701172 344.21040039 200.93884766 343.96547852 200.36376953 343.71313477 C197.61532267 342.21567302 195.48731021 340.37569093 193.11767578 338.33032227 C175.360735 323.69728773 153.34331717 314.61200227 130.05517578 316.45532227 C119.14183071 318.15431428 109.96291859 324.33102269 103.49267578 333.14672852 C99.91207673 338.89709276 98.57393275 342.96952398 99.11767578 349.76782227 C99.17439453 350.52401855 99.23111328 351.28021484 99.28955078 352.05932617 C100.55580874 365.92544811 109.19493873 375.64568315 119.58251953 384.44750977 C120.39849609 385.11008789 121.21447266 385.77266602 122.05517578 386.45532227 C122.96396484 387.20040039 123.87275391 387.94547852 124.80908203 388.71313477 C133.72523668 395.79595493 143.23615983 401.88778721 152.82128906 408.01879883 C156.50355414 410.38671661 160.13187412 412.8331262 163.76220703 415.27954102 C166.55500278 417.12484022 169.36613806 418.93081134 172.19189453 420.72485352 C173.5618457 421.59980469 173.5618457 421.59980469 174.95947266 422.49243164 C176.79103572 423.66077608 178.62688451 424.82243347 180.46728516 425.97680664 C181.30453125 426.51241211 182.14177734 427.04801758 183.00439453 427.59985352 C183.76067139 428.077854 184.51694824 428.55585449 185.29614258 429.04833984 C187.05517578 430.45532227 187.05517578 430.45532227 188.05517578 433.45532227 C189.71993272 434.12674357 191.38710799 434.79216913 193.05517578 435.45532227 C195.50244619 437.10416035 197.79685522 438.94683054 200.11767578 440.76782227 C208.66995801 447.33294773 217.63804312 453.14470878 226.71435547 458.9519043 C242.99641215 469.4092369 258.83940764 480.4981117 274.05517578 492.45532227 C275.24255055 493.38386785 276.43005433 494.31224847 277.61767578 495.24047852 C283.70897008 500.00864702 289.76752205 504.8146561 295.78955078 509.67016602 C298.68040545 511.94796012 301.65253641 514.10325726 304.65673828 516.22875977 C305.11822266 516.63352539 305.57970703 517.03829102 306.05517578 517.45532227 C306.05517578 518.11532227 306.05517578 518.77532227 306.05517578 519.45532227 C306.60230225 519.67937744 307.14942871 519.90343262 307.71313477 520.13427734 C310.76067157 521.85326219 313.06747181 524.14375869 315.52783203 526.59204102 C316.04776733 527.10364273 316.56770264 527.61524445 317.10339355 528.14234924 C318.7823133 529.80183154 320.45127239 531.47077612 322.11767578 533.14282227 C322.68453094 533.70988892 323.25138611 534.27695557 323.8354187 534.86120605 C332.12956787 543.18645036 339.73404255 551.50494523 346.05517578 561.45532227 C347.04130859 562.93258789 347.04130859 562.93258789 348.04736328 564.43969727 C366.2106816 592.59648791 379.9853159 624.08133122 384.05517578 657.45532227 C384.22436523 658.71715332 384.39355469 659.97898437 384.56787109 661.27905273 C385.99106995 672.37513113 386.36639511 683.33274154 386.31591797 694.51342773 C386.30521094 697.32110303 386.31588015 700.12813505 386.32861328 702.93579102 C386.34134854 718.79681625 385.28042278 734.59140234 382.36767578 750.20532227 C382.20323975 751.09598389 382.03880371 751.98664551 381.86938477 752.90429688 C373.89633269 793.78437387 355.50825079 834.04278635 321.18017578 859.20532227 C312.00280856 865.26946684 302.53048823 870.22036433 292.11767578 873.76782227 C291.451875 873.99800049 290.78607422 874.22817871 290.10009766 874.46533203 C277.35883808 878.55880692 264.46054079 880.04192821 251.11767578 879.95532227 C250.41161194 879.95422455 249.7055481 879.95312683 248.97808838 879.95199585 C235.27007174 879.89144637 222.31040924 878.03939901 209.05517578 874.45532227 C208.33281738 874.26309082 207.61045898 874.07085938 206.86621094 873.87280273 C175.56026137 865.22948727 147.27822924 846.15336991 123.08642578 825.05688477 C120.2215325 822.52198183 120.2215325 822.52198183 117.64892578 820.72875977 C117.12298828 820.30852539 116.59705078 819.88829102 116.05517578 819.45532227 C116.05517578 818.79532227 116.05517578 818.13532227 116.05517578 817.45532227 C115.47380859 817.20008789 114.89244141 816.94485352 114.29345703 816.68188477 C108.14552173 813.31285914 103.47632373 806.90182464 98.95751953 801.63500977 C96.770741 799.12941958 94.50613704 796.70430942 92.24267578 794.26782227 C86.78052717 788.29385943 81.89747914 781.93576655 77.05517578 775.45532227 C74.78032962 777.73016843 75.81374743 783.04545331 75.80517578 786.08032227 C75.84527551 822.43931691 82.51255408 859.2184488 91.05517578 894.45532227 C91.27077148 895.37716309 91.48636719 896.29900391 91.70849609 897.2487793 C98.82127973 927.57371168 109.82480197 956.86478508 122.05517578 985.45532227 C122.69132812 986.94733154 122.69132812 986.94733154 123.34033203 988.46948242 C128.25881594 999.91956687 133.76175475 1010.99603144 139.69873047 1021.94995117 C141.13162485 1024.59652463 142.55058838 1027.25030792 143.96923828 1029.90454102 C160.86312122 1061.36476624 180.88856916 1090.49021284 203.05517578 1118.45532227 C203.86728516 1119.48399414 204.67939453 1120.51266602 205.51611328 1121.57250977 C210.50342772 1127.78414688 215.8307247 1133.62737819 221.26220703 1139.44750977 C224.61361102 1143.04222412 227.84722099 1146.73251053 231.05517578 1150.45532227 C235.79553833 1155.94632791 240.46534178 1161.29712727 246.05517578 1165.95532227 C249.76085018 1169.04338427 253.0660229 1172.45164675 256.44970703 1175.88500977 C261.48058201 1180.9727767 266.59456978 1185.83480949 272.05517578 1190.45532227 C272.99876953 1191.26485352 273.94236328 1192.07438477 274.91455078 1192.90844727 C293.70023765 1208.98204385 313.25982313 1224.06135416 334.05517578 1237.45532227 C335.09714111 1238.13062988 335.09714111 1238.13062988 336.16015625 1238.81958008 C353.83947929 1250.25061589 371.86942623 1261.37520252 390.90087891 1270.4230957 C393.34283962 1271.59315575 395.76891172 1272.79338582 398.19580078 1273.99438477 C412.86668879 1281.20131714 427.82589027 1287.52634598 443.05517578 1293.45532227 C443.99683594 1293.82254395 444.93849609 1294.18976563 445.90869141 1294.56811523 C457.40282656 1299.00448466 469.07344019 1302.78391565 480.86767578 1306.33032227 C481.51024323 1306.52386292 482.15281067 1306.71740356 482.81484985 1306.91680908 C489.10249049 1308.80224362 495.37146741 1310.63558857 501.79858398 1311.98071289 C504.47092473 1312.54276313 507.12672316 1313.16493749 509.78564453 1313.78735352 C542.85160483 1321.41934716 576.37972415 1326.35382102 610.24267578 1328.51782227 C627.67008938 1329.66506623 646.20361592 1331.55361145 658.75048828 1345.31469727 C659.22228516 1345.93860352 659.69408203 1346.56250977 660.18017578 1347.20532227 C660.65712891 1347.81891602 661.13408203 1348.43250977 661.62548828 1349.06469727 C665.54080854 1355.61162623 666.58412757 1361.640227 666.49267578 1369.20532227 C666.48510254 1370.08567139 666.4775293 1370.96602051 666.46972656 1371.87304688 C665.96763674 1391.81187664 653.48515167 1407.71688403 640.05517578 1421.45532227 C636.59960739 1424.48879354 633.17101397 1426.43972541 629.05517578 1428.45532227 C627.16198253 1429.69889038 625.28725248 1430.97093812 623.43017578 1432.26782227 C587.87659413 1456.10044293 539.22523623 1464.77124732 497.49267578 1469.70532227 C496.79595764 1469.78840637 496.0992395 1469.87149048 495.38140869 1469.95709229 C477.02622969 1472.11681246 458.80183712 1472.64186289 440.33007812 1472.640625 C436.72139426 1472.64279745 433.11302411 1472.66098031 429.50439453 1472.67993164 C381.4508701 1472.79577308 333.65920615 1465.92066254 287.05517578 1454.45532227 C285.8639209 1454.16463867 284.67266602 1453.87395508 283.4453125 1453.57446289 C240.22508415 1442.89756395 198.1406807 1427.82554275 158.05517578 1408.45532227 C156.95157715 1407.92471191 155.84797852 1407.39410156 154.7109375 1406.84741211 C126.61089566 1393.26931524 99.41086445 1377.69955418 74.05517578 1359.45532227 C73.35457031 1358.95307129 72.65396484 1358.45082031 71.93212891 1357.93334961 C60.26352327 1349.53879411 49.03342831 1340.73135311 38.05517578 1331.45532227 C37.40613281 1330.91069336 36.75708984 1330.36606445 36.08837891 1329.80493164 C29.74679952 1324.48058022 23.54375812 1319.14005847 17.78173828 1313.18188477 C16.09175619 1311.49190268 14.33650194 1309.97424514 12.49267578 1308.45532227 C9.26473227 1305.7531976 6.60553839 1302.7365202 3.87548828 1299.54125977 C-0.14139961 1294.93821657 -4.26106449 1290.37353433 -9.44482422 1287.08032227 C-10.26982422 1286.54407227 -11.09482422 1286.00782227 -11.94482422 1285.45532227 C-11.94482422 1284.79532227 -11.94482422 1284.13532227 -11.94482422 1283.45532227 C-12.51201172 1283.17430664 -13.07919922 1282.89329102 -13.66357422 1282.60375977 C-15.15125973 1281.8548222 -16.6310136 1281.08985184 -18.10107422 1280.30688477 C-47.61093884 1264.86338895 -82.47158983 1267.23376244 -113.51611328 1276.68237305 C-140.12441173 1285.15059509 -164.62396781 1298.5249359 -186.27001953 1316.11157227 C-188.97401927 1318.28107876 -191.74448457 1320.36169547 -194.50732422 1322.45532227 C-198.93348442 1325.82967523 -203.21851588 1329.33431153 -207.44482422 1332.95532227 C-213.21278345 1337.89226044 -219.14159496 1342.56885746 -225.20410156 1347.13989258 C-227.02566069 1348.51640879 -228.83888241 1349.90345919 -230.65185547 1351.29125977 C-276.38729157 1386.1441792 -326.86988637 1413.58734603 -379.94482422 1435.45532227 C-380.72293457 1435.78097168 -381.50104492 1436.10662109 -382.30273438 1436.44213867 C-428.38174196 1455.68191969 -478.51583637 1467.17708036 -527.94482422 1473.45532227 C-529.16250488 1473.6190332 -530.38018555 1473.78274414 -531.63476562 1473.95141602 C-607.01965603 1483.7345738 -686.21059342 1475.00526633 -757.94482422 1450.45532227 C-759.16975586 1450.03863281 -759.16975586 1450.03863281 -760.41943359 1449.61352539 C-780.89214751 1442.5711873 -801.11315003 1434.0527166 -820.01953125 1423.49316406 C-822.2275717 1422.30290538 -824.47232975 1421.20494578 -826.72607422 1420.10375977 C-833.21897776 1416.88318596 -839.36259627 1413.11139326 -845.55810547 1409.35961914 C-847.3970635 1408.25754855 -849.24705233 1407.17368299 -851.10742188 1406.1081543 C-853.049747 1404.97671899 -854.95551573 1403.78078549 -856.82519531 1402.53295898 C-861.10868827 1399.91688502 -864.13762659 1398.182586 -869.22070312 1398.94970703 C-872.22324373 1400.00216837 -875.0888785 1401.18057153 -877.95553589 1402.55999756 C-880.52488577 1403.79392817 -883.13764642 1404.9186941 -885.75285339 1406.05136108 C-887.11322446 1406.64090255 -888.47146943 1407.23537319 -889.82759094 1407.83462524 C-918.02283656 1420.22106585 -948.74508455 1427.11289249 -978.94482422 1432.45532227 C-980.46245361 1432.72868408 -980.46245361 1432.72868408 -982.01074219 1433.00756836 C-1058.33076923 1446.06761045 -1147.29265768 1422.49480539 -1214.95361328 1386.49731445 C-1217.21262233 1385.31518465 -1219.49480519 1384.18598433 -1221.78076172 1383.05688477 C-1231.01209161 1378.44256171 -1238.6190191 1373.8302115 -1245.94482422 1366.45532227 C-1246.95524898 1365.5508697 -1247.97259539 1364.65410871 -1248.99560547 1363.76391602 C-1254.93170716 1358.57956354 -1260.206803 1353.49854119 -1263.94482422 1346.45532227 C-1264.28126953 1345.8352832 -1264.61771484 1345.21524414 -1264.96435547 1344.57641602 C-1269.14847867 1335.42484062 -1267.5127482 1325.09115738 -1264.2668457 1315.91333008 C-1259.27112686 1303.06005678 -1249.9724659 1294.2699833 -1237.6953125 1288.37524414 C-1225.13171907 1282.84967457 -1213.77454433 1280.09601141 -1200.00732422 1280.08032227 C-1198.91097656 1280.05583008 -1197.81462891 1280.03133789 -1196.68505859 1280.00610352 C-1181.51603222 1279.95370619 -1167.36826238 1284.33175578 -1153.22988892 1289.42919922 C-1149.45401478 1290.78589143 -1145.66257065 1292.09752966 -1141.87060547 1293.40844727 C-1140.73382607 1293.80157104 -1140.73382607 1293.80157104 -1139.57408142 1294.20263672 C-1089.62796865 1311.37130786 -1049.87571871 1312.59751922 -1002.12864685 1289.49438477 C-999.5634164 1288.23922463 -997.00359543 1286.97359273 -994.44482422 1285.70532227 C-993.55406189 1285.26712158 -992.66329956 1284.8289209 -991.74554443 1284.37744141 C-978.52565764 1277.87150191 -965.4960018 1271.19133706 -952.94482422 1263.45532227 C-952.13513184 1262.96128906 -951.32543945 1262.46725586 -950.49121094 1261.95825195 C-925.72363787 1246.79717505 -902.74917785 1229.12365167 -881.28466797 1209.57250977 C-879.72932054 1208.16516702 -878.15891285 1206.7742854 -876.57373047 1205.40063477 C-872.23171681 1201.63706812 -868.33537326 1197.77525696 -864.62451172 1193.38891602 C-862.97132846 1191.48583297 -861.24478144 1189.71928034 -859.44482422 1187.95532227 C-855.73396827 1184.28533477 -852.30395444 1180.44929728 -848.94482422 1176.45532227 C-848.26009033 1175.6412793 -848.26009033 1175.6412793 -847.56152344 1174.81079102 C-812.50532633 1132.92721174 -785.61125547 1083.58733727 -775.94482422 1029.45532227 C-775.78788086 1028.5877832 -775.6309375 1027.72024414 -775.46923828 1026.82641602 C-773.66050781 1016.51081769 -772.66429617 1006.22874316 -772.19482422 995.76782227 C-772.1500293 994.80763184 -772.10523438 993.84744141 -772.05908203 992.8581543 C-771.53832174 977.46994564 -773.12678748 962.24236561 -775.19482422 947.01782227 C-775.36055435 945.77403809 -775.36055435 945.77403809 -775.52963257 944.50512695 C-776.85286353 934.6009258 -778.32941362 924.76255488 -780.25732422 914.95532227 C-789.37800465 868.49546595 -794.46753844 821.0868376 -799.80273438 774.06811523 C-800.04014477 771.97972984 -800.27761166 769.89135087 -800.51513672 767.80297852 C-800.68967377 766.26329407 -800.68967377 766.26329407 -800.86773682 764.69250488 C-801.57071841 758.5452042 -802.33171701 752.40810268 -803.13098145 746.27262878 C-804.7085866 734.10017185 -805.80305279 721.95408058 -806.56982422 709.70532227 C-806.66271225 708.26613937 -806.66271225 708.26613937 -806.75747681 706.79788208 C-809.07243552 670.74303971 -809.9681133 634.45405114 -808.36669922 598.34716797 C-808.0634 591.35232963 -807.8729244 584.36574728 -807.76123047 577.36547852 C-806.96206301 528.32521052 -805.74730696 477.30322527 -793.94482422 429.45532227 C-793.73277344 428.59036133 -793.52072266 427.72540039 -793.30224609 426.83422852 C-781.97261185 381.85388959 -760.04497547 340.48502355 -733.94482422 302.45532227 C-733.4551416 301.73747559 -732.96545898 301.01962891 -732.4609375 300.2800293 C-725.63275218 290.30002748 -718.37406219 280.79887155 -710.64208984 271.50415039 C-708.88108467 269.37838005 -707.13787162 267.23899922 -705.39794922 265.09594727 C-698.95143303 257.17192122 -692.39415188 249.44118387 -685.39160156 241.99926758 C-683.82230744 240.32457706 -682.26770824 238.6369929 -680.71435547 236.94750977 C-674.45598686 230.15971071 -668.08585357 223.49655722 -661.56982422 216.95532227 C-660.60749878 215.9861084 -660.60749878 215.9861084 -659.62573242 214.99731445 C-655.79923852 211.18316567 -651.85781474 207.56254866 -647.75024414 204.05249023 C-645.95700824 202.46610089 -644.28993459 200.80694465 -642.63232422 199.08032227 C-638.93318044 195.31392132 -634.86695212 192.07339253 -630.75732422 188.76782227 C-628.13516528 186.61182491 -625.62873853 184.37965124 -623.13232422 182.08032227 C-617.56371474 177.01394497 -611.66973804 172.41391394 -605.71191406 167.81958008 C-604.02062809 166.51384562 -602.33552131 165.20054777 -600.65185547 163.88500977 C-592.90518461 157.85185028 -584.98247329 152.09380978 -576.94482422 146.45532227 C-575.87361328 145.70379883 -574.80240234 144.95227539 -573.69873047 144.17797852 C-554.31248067 130.67641654 -534.32094513 118.40237376 -513.94482422 106.45532227 C-513.25146973 106.04717285 -512.55811523 105.63902344 -511.84375 105.21850586 C-496.09761257 95.96553592 -479.57980301 88.18659237 -462.96044922 80.64282227 C-462.315354 80.34770752 -461.67025879 80.05259277 -461.00561523 79.74853516 C-459.27278761 78.95698546 -457.53667836 78.17263041 -455.80029297 77.38891602 C-452.5222806 75.82167803 -449.43625286 73.99069186 -446.31591797 72.13110352 C-439.99270279 68.4050549 -433.49072706 65.25539254 -426.81982422 62.20532227 C-426.22210205 61.93040955 -425.62437988 61.65549683 -425.00854492 61.37225342 C-416.20523447 57.32448407 -407.35347606 53.3912082 -398.44482422 49.58032227 C-397.4817334 49.16492188 -396.51864258 48.74952148 -395.52636719 48.3215332 C-379.40027504 41.52224948 -362.615619 36.27604019 -345.99121094 30.84814453 C-343.0768168 29.89510891 -340.16513032 28.93409329 -337.25341797 27.97290039 C-318.24706371 21.73531808 -299.12244849 16.39857943 -279.50732422 12.45532227 C-278.68876953 12.28923462 -277.87021484 12.12314697 -277.02685547 11.95202637 C-235.07598415 3.4779343 -192.67432126 -1.37509757 -149.94482422 -3.54467773 C-148.86523438 -3.60252441 -147.78564453 -3.66037109 -146.67333984 -3.7199707 C-97.84169132 -6.24548721 -48.634969 -4.89024772 0 0 Z " fill="#E4E5E5" transform="translate(1289.94482421875,370.544677734375)"/>
<path d="M0 0 C0.85722656 0.37721191 1.71445313 0.75442383 2.59765625 1.14306641 C33.51652192 14.88138172 67.58928403 38.16393884 86 67 C86.9400204 68.43234664 87.88013283 69.86463289 88.8203125 71.296875 C94.25642949 79.66933904 99.35211416 88.14306393 103.88256836 97.04150391 C105.74943476 100.70302466 107.73267317 104.22560495 109.89453125 107.72265625 C113.33716634 113.40138026 116.08227976 119.32860948 118.8125 125.375 C119.33457031 126.51984863 119.85664062 127.66469727 120.39453125 128.84423828 C121.93513351 132.22704967 123.46770603 135.61341945 125 139 C125.78456681 140.71901915 126.56966527 142.43779581 127.35546875 144.15625 C136.20577069 163.58228421 144.55050091 183.24664022 152.61499023 203.01074219 C154.41805868 207.38978948 156.29837025 211.6723936 158.453125 215.890625 C161.3981634 221.66916025 163.83806336 227.63349232 166.3125 233.625 C170.20528719 242.92378466 174.24934731 252.03862713 178.94140625 260.95947266 C180.11577135 263.2231589 181.24555077 265.50655576 182.375 267.79296875 C191.49763131 286.02264305 202.98041214 302.57875731 215 319 C216.5040736 321.06880813 217.97868936 323.1483734 219.4375 325.25 C220.09621094 326.18328125 220.75492188 327.1165625 221.43359375 328.078125 C224.36810535 333.55197706 224.06978732 339.16822161 223.93408203 345.21337891 C223.1486601 382.25803166 230.30295 420.12613586 239 456 C239.32339355 457.38276123 239.32339355 457.38276123 239.65332031 458.79345703 C246.76610395 489.11838942 257.76962618 518.40946281 270 547 C270.63615234 548.49200928 270.63615234 548.49200928 271.28515625 550.01416016 C276.20364016 561.4642446 281.70657896 572.54070917 287.64355469 583.49462891 C289.07644907 586.14120236 290.4954126 588.79498565 291.9140625 591.44921875 C308.80794544 622.90944397 328.83339338 652.03489057 351 680 C351.81210938 681.02867187 352.62421875 682.05734375 353.4609375 683.1171875 C358.44825194 689.32882462 363.77554892 695.17205593 369.20703125 700.9921875 C372.55843524 704.58690185 375.79204521 708.27718827 379 712 C383.74036255 717.49100564 388.410166 722.841805 394 727.5 C397.7056744 730.588062 401.01084712 733.99632449 404.39453125 737.4296875 C409.42540622 742.51745444 414.539394 747.37948723 420 752 C420.94359375 752.80953125 421.8871875 753.6190625 422.859375 754.453125 C441.64506187 770.52672158 461.20464735 785.60603189 482 799 C483.04196533 799.67530762 483.04196533 799.67530762 484.10498047 800.36425781 C501.78430351 811.79529363 519.81425045 822.91988025 538.84570312 831.96777344 C541.28766384 833.13783349 543.71373594 834.33806355 546.140625 835.5390625 C560.81151301 842.74599487 575.77071448 849.07102372 591 855 C591.94166016 855.36722168 592.88332031 855.73444336 593.85351562 856.11279297 C605.34765078 860.54916239 617.01826441 864.32859339 628.8125 867.875 C629.45506744 868.06854065 630.09763489 868.2620813 630.75967407 868.46148682 C637.04731471 870.34692135 643.31629163 872.18026631 649.7434082 873.52539062 C652.41574895 874.08744087 655.07154738 874.70961523 657.73046875 875.33203125 C690.79642905 882.96402489 724.32454837 887.89849876 758.1875 890.0625 C775.6149136 891.20974396 794.14844014 893.09828919 806.6953125 906.859375 C807.16710938 907.48328125 807.63890625 908.1071875 808.125 908.75 C808.60195312 909.36359375 809.07890625 909.9771875 809.5703125 910.609375 C813.48563276 917.15630397 814.52895179 923.18490473 814.4375 930.75 C814.42992676 931.63034912 814.42235352 932.51069824 814.41455078 933.41772461 C813.91246096 953.35655437 801.42997589 969.26156177 788 983 C784.54443161 986.03347128 781.11583819 987.98440315 777 990 C775.10680675 991.24356812 773.2320767 992.51561586 771.375 993.8125 C735.82141835 1017.64512067 687.17006045 1026.31592506 645.4375 1031.25 C644.74078186 1031.33308411 644.04406372 1031.41616821 643.32623291 1031.50177002 C624.97105391 1033.6614902 606.74666134 1034.18654062 588.27490234 1034.18530273 C584.66621848 1034.18747519 581.05784833 1034.20565804 577.44921875 1034.22460938 C529.39569431 1034.34045081 481.60403037 1027.46534028 435 1016 C433.80874512 1015.70931641 432.61749023 1015.41863281 431.39013672 1015.11914062 C388.16990837 1004.44224168 346.08550492 989.37022048 306 970 C304.34460205 969.20408447 304.34460205 969.20408447 302.65576172 968.39208984 C274.55571988 954.81399297 247.35568866 939.24423191 222 921 C221.29939453 920.49774902 220.59878906 919.99549805 219.87695312 919.47802734 C208.20834749 911.08347185 196.97825253 902.27603084 186 893 C185.35095703 892.45537109 184.70191406 891.91074219 184.03320312 891.34960938 C177.69162374 886.02525795 171.48858234 880.68473621 165.7265625 874.7265625 C164.03658041 873.03658041 162.28132616 871.51892287 160.4375 870 C157.20955648 867.29787534 154.55036261 864.28119794 151.8203125 861.0859375 C147.80342461 856.4828943 143.68375973 851.91821206 138.5 848.625 C137.675 848.08875 136.85 847.5525 136 847 C136 846.34 136 845.68 136 845 C135.4328125 844.71898437 134.865625 844.43796875 134.28125 844.1484375 C132.79356449 843.39949993 131.31381062 842.63452957 129.84375 841.8515625 C100.33388538 826.40806668 65.47323439 828.77844017 34.42871094 838.22705078 C7.82041249 846.69527283 -16.67914359 860.06961363 -38.32519531 877.65625 C-41.02919505 879.82575649 -43.79966036 881.90637321 -46.5625 884 C-50.98866021 887.37435296 -55.27369166 890.87898927 -59.5 894.5 C-65.26795923 899.43693818 -71.19677074 904.1135352 -77.25927734 908.68457031 C-79.08083647 910.06108653 -80.89405819 911.44813693 -82.70703125 912.8359375 C-128.44246736 947.68885694 -178.92506216 975.13202377 -232 997 C-232.77811035 997.32564941 -233.5562207 997.65129883 -234.35791016 997.98681641 C-280.43691774 1017.22659743 -330.57101215 1028.7217581 -380 1035 C-381.21768066 1035.16371094 -382.43536133 1035.32742188 -383.68994141 1035.49609375 C-459.07483182 1045.27925153 -538.2657692 1036.54994406 -610 1012 C-610.81662109 1011.72220703 -611.63324219 1011.44441406 -612.47460938 1011.15820312 C-632.94778377 1004.11570663 -653.16691409 995.5958418 -672.07470703 985.03808594 C-674.28310549 983.84735423 -676.52763034 982.74720623 -678.78125 981.64453125 C-684.30845308 978.9019098 -689.58575562 975.79733882 -694.875 972.625 C-696.80180202 971.47478903 -698.72888338 970.32504588 -700.65625 969.17578125 C-701.57277344 968.62873535 -702.48929688 968.08168945 -703.43359375 967.51806641 C-705.6418209 966.21186812 -707.86001544 964.9298468 -710.09375 963.66796875 C-711.1765625 963.05566406 -712.259375 962.44335938 -713.375 961.8125 C-714.74785156 961.04873047 -714.74785156 961.04873047 -716.1484375 960.26953125 C-716.75945312 959.85058594 -717.37046875 959.43164062 -718 959 C-718 958.34 -718 957.68 -718 957 C-716.78437378 956.47212891 -716.78437378 956.47212891 -715.54418945 955.93359375 C-712.46729203 954.59187117 -709.39453717 953.24137847 -706.32397461 951.88525391 C-705.00776597 951.30598791 -703.69010576 950.73000627 -702.37084961 950.15771484 C-694.16076972 946.59301782 -686.54498309 942.70039935 -678.98168945 937.88818359 C-674.72628504 935.19340772 -670.33387526 932.76724061 -665.9375 930.3125 C-638.01723179 914.50743094 -611.54489091 895.64720437 -587 875 C-586.46842285 874.55333984 -585.9368457 874.10667969 -585.38916016 873.64648438 C-577.26041966 866.79879075 -569.3643015 859.73939271 -561.60009766 852.48242188 C-560.02136154 851.01979055 -558.42629755 849.57761724 -556.82421875 848.140625 C-548.67118347 840.79703135 -541.15352755 832.96521868 -533.73535156 824.88378906 C-532.16554014 823.17970001 -530.5827517 821.48938059 -528.9921875 819.8046875 C-523.22158358 813.66211261 -517.92276097 807.25983569 -512.7890625 800.5859375 C-510.99541283 798.25832922 -509.16375416 795.97629605 -507.2734375 793.7265625 C-493.04549669 776.68724603 -480.67061218 757.44624106 -470 738 C-469.54496094 737.17741699 -469.08992187 736.35483398 -468.62109375 735.50732422 C-455.89064007 712.32516807 -445.83188383 687.90622362 -437 663 C-436.65606201 662.05350586 -436.31212402 661.10701172 -435.95776367 660.13183594 C-433.31393908 652.60571962 -431.67948358 645.1002658 -430.3125 637.25 C-429.99442383 635.50009766 -429.99442383 635.50009766 -429.66992188 633.71484375 C-428.11623523 625.05928977 -426.85180831 616.63305966 -426.796875 607.828125 C-426.78986069 607.07196899 -426.78284637 606.31581299 -426.77561951 605.53674316 C-426.75820432 603.10776757 -426.75176677 600.67903575 -426.75 598.25 C-426.74932526 597.42052856 -426.74865051 596.59105713 -426.74795532 595.7364502 C-426.76408008 583.27005496 -427.15704687 571.19106594 -430 559 C-430.15033691 558.31276855 -430.30067383 557.62553711 -430.45556641 556.91748047 C-433.85967493 541.87648173 -441.21705536 528.31161135 -448.2109375 514.6796875 C-453.11172786 505.10978052 -457.24005624 495.36885101 -461.09472656 485.33105469 C-461.88952049 483.28448175 -462.71319742 481.25423626 -463.5546875 479.2265625 C-469.03254051 465.57634501 -472.44683081 451.24537465 -476 437 C-476.4340918 435.2670166 -476.4340918 435.2670166 -476.87695312 433.49902344 C-489.36484219 382.85369556 -492.69693258 327.46519375 -483 276 C-482.83661133 275.12053711 -482.67322266 274.24107422 -482.50488281 273.33496094 C-477.31127707 246.0037307 -468.81005063 218.8900423 -451 197 C-450.27039063 196.07058594 -449.54078125 195.14117188 -448.7890625 194.18359375 C-435.56825594 177.60118279 -419.31971829 165.09909215 -400.77050781 154.96875 C-399.11858256 154.06488356 -397.47682252 153.1425075 -395.8359375 152.21875 C-356.06548506 130.93042996 -297.65338444 124.1245201 -254 136 C-252.29722303 136.41808665 -250.59408603 136.83470927 -248.890625 137.25 C-222.84871412 143.87735263 -198.99439032 156.3222133 -178 173 C-177.27554688 173.53367187 -176.55109375 174.06734375 -175.8046875 174.6171875 C-167.97772651 180.42242425 -161.01592444 187.2594569 -154 194 C-153.10812988 194.85682373 -153.10812988 194.85682373 -152.19824219 195.73095703 C-139.82164455 207.69361 -129.75456956 220.92557474 -119.61572266 234.79248047 C-88.20800806 277.70401801 -47.29499149 314.64355985 6.796875 324.34765625 C31.65822842 327.98506951 57.2276674 324.80884701 78 310 C92.83322246 297.5791699 102.16876317 279.71916261 104.7578125 260.5390625 C106.90831747 229.11394146 102.02279466 202.90274086 82 178 C81.54318848 177.42813965 81.08637695 176.8562793 80.61572266 176.26708984 C57.16869114 147.17496087 23.2888785 131.76447302 -11 119 C-12.01320313 118.61199219 -13.02640625 118.22398437 -14.0703125 117.82421875 C-28.97690991 112.27713455 -44.25834358 108.43329357 -59.875 105.5 C-74.01115645 102.80153456 -86.68348396 99.31832003 -98 90 C-98.77859375 89.38253906 -99.5571875 88.76507812 -100.359375 88.12890625 C-110.97619729 79.27561652 -115.69931081 68.90206758 -120 56 C-121.31449041 36.18306124 -120.39131633 17.37104654 -107.5 1.25 C-79.80960993 -27.98169777 -31.39134724 -14.20212214 0 0 Z " fill="#27A2AC" transform="translate(1142,809)"/>
<path d="M0 0 C2.72156525 1.91890883 5.23107385 3.92561855 7.72265625 6.1328125 C8.38652344 6.7 9.05039063 7.2671875 9.734375 7.8515625 C17.44470155 14.9430559 23.1709067 24.8110454 23.87060547 35.36425781 C24.42349027 49.42018474 22.86403481 61.00482646 17.72265625 74.1328125 C17.06265625 74.1328125 16.40265625 74.1328125 15.72265625 74.1328125 C15.34367187 75.22916016 15.34367187 75.22916016 14.95703125 76.34765625 C11.99129656 83.03932976 6.09813443 88.64147921 -0.27734375 92.1328125 C-0.93734375 92.1328125 -1.59734375 92.1328125 -2.27734375 92.1328125 C-2.27734375 92.7928125 -2.27734375 93.4528125 -2.27734375 94.1328125 C-11.92157126 101.7816826 -26.65432157 101.23988874 -38.27734375 100.1328125 C-42.03518021 99.31968652 -44.99691743 98.11448268 -48.27734375 96.1328125 C-49.07398438 95.66230469 -49.870625 95.19179687 -50.69140625 94.70703125 C-57.35410062 90.50758057 -62.21779226 85.51286998 -66.796875 79.14453125 C-68.20401199 77.16395907 -68.20401199 77.16395907 -69.6640625 75.58984375 C-76.88496449 67.1546159 -76.79125935 53.65380696 -76.27734375 43.1328125 C-76.2928125 42.19308594 -76.30828125 41.25335937 -76.32421875 40.28515625 C-76.1195838 27.61484197 -69.12161167 16.00672655 -60.44921875 7.125 C-53.35132219 0.61433949 -53.35132219 0.61433949 -49.140625 -0.36328125 C-48.21830078 -0.61271484 -48.21830078 -0.61271484 -47.27734375 -0.8671875 C-46.94734375 -1.5271875 -46.61734375 -2.1871875 -46.27734375 -2.8671875 C-31.46330233 -9.97585186 -14.06130085 -8.01108678 0 0 Z " fill="#000202" transform="translate(1272.27734375,1176.8671875)"/>
<path d="M0 0 C9.555213 7.1219828 16.44062745 16.20045145 19 28 C19.29880623 31.75425064 19.32477081 35.48531414 19.3125 39.25 C19.32861328 40.22324219 19.34472656 41.19648437 19.36132812 42.19921875 C19.36598845 49.21766948 18.15889155 55.33136944 16 62 C15.34 62 14.68 62 14 62 C13.7215625 63.175625 13.7215625 63.175625 13.4375 64.375 C9.76480387 73.63658154 2.97839489 81.13314011 -5 87 C-7.30078125 87.74609375 -7.30078125 87.74609375 -9 88 C-9 88.66 -9 89.32 -9 90 C-20.80096864 96.69784707 -34.14453251 97.71846856 -47.3125 94.875 C-59.64646644 91.26385207 -68.64001368 83.04619757 -75.68359375 72.47265625 C-77.0725911 69.86364936 -78.13211928 67.2831932 -79.125 64.5 C-79.45757813 63.5821875 -79.79015625 62.664375 -80.1328125 61.71875 C-83.83281207 50.11875136 -83.72194738 36.36397238 -78.2890625 25.4375 C-77.86367188 24.633125 -77.43828125 23.82875 -77 23 C-76.508698 21.75471969 -76.02763004 20.5052907 -75.5625 19.25 C-68.85597532 5.30042867 -56.28947181 -3.75080627 -42 -9 C-26.8007721 -12.64576075 -12.58225291 -8.73436501 0 0 Z " fill="#000202" transform="translate(1006,1189)"/>
<path d="M0 0 C3.9082081 0.34484189 6.4674272 1.88007186 9.765625 3.88671875 C13.68584326 5.83997435 17.9050201 6.88722659 22.109375 8.0703125 C25 9 25 9 28 11 C47.90875589 15.89410995 68.29291382 12.71710369 87 5 C87 4.34 87 3.68 87 3 C90.80024093 1.58595686 93.92922882 0.65107676 98 1 C99 2 99 2 99.0625 5.0625 C99.041875 6.031875 99.02125 7.00125 99 8 C96.69 8.66 94.38 9.32 92 10 C92 10.66 92 11.32 92 12 C88.00362211 13.6754574 84.00296679 15.34034828 80 17 C79.06027344 17.391875 78.12054687 17.78375 77.15234375 18.1875 C75.87037109 18.7134375 75.87037109 18.7134375 74.5625 19.25 C73.80066406 19.56453125 73.03882813 19.8790625 72.25390625 20.203125 C57.87832255 25.28565373 37.39773601 23.24431354 23 19 C22.03707031 18.7215625 21.07414062 18.443125 20.08203125 18.15625 C12.34843705 15.62565218 3.80505703 11.80505703 -2 6 C-1.44444444 1.44444444 -1.44444444 1.44444444 0 0 Z " fill="#030D0E" transform="translate(1077,1370)"/>
<path d="M0 0 C3.0625 1.5 3.0625 1.5 5 3 C5.08754792 6.50191665 4.4727345 8.48242883 2.10546875 11.07421875 C-7.50800438 19.69924191 -7.50800438 19.69924191 -13.625 20.4375 C-17 20 -17 20 -18.9375 18.375 C-20.37270595 15.16689259 -20.61667866 13.49451242 -20 10 C-15.07566716 2.28521189 -9.18087115 -1.29495108 0 0 Z " fill="#F2F8F8" transform="translate(963,1195)"/>
<path d="M0 0 C2 1.125 2 1.125 3 3 C3.11995113 8.15789857 0.64175158 11.32096706 -2.33203125 15.265625 C-4.14521794 17.15099945 -5.55386965 18.09036 -8 19 C-11.625 18.8125 -11.625 18.8125 -15 18 C-17.35620437 14.46569344 -17.48991613 13.16428713 -17 9 C-13.27493872 1.69314902 -8.1366455 -0.92112968 0 0 Z " fill="#F0F5F5" transform="translate(1227,1189)"/>
<path d="M0 0 C0.66 0.33 1.32 0.66 2 1 C-5.11389522 9.6309795 -5.11389522 9.6309795 -10 12 C-8.52278578 8.54798361 -6.56205999 6.35038064 -3.875 3.75 C-3.15054688 3.04359375 -2.42609375 2.3371875 -1.6796875 1.609375 C-1.12539063 1.07828125 -0.57109375 0.5471875 0 0 Z " fill="#0B2B2A" transform="translate(945,1190)"/>
<path d="M0 0 C-4.79482068 2.75702189 -8.58609132 3.53328373 -14 4 C-11.68618135 1.29186499 -9.90705875 0.45877312 -6.4375 -0.25 C-5.65246094 -0.42015625 -4.86742187 -0.5903125 -4.05859375 -0.765625 C-2 -1 -2 -1 0 0 Z " fill="#175D63" transform="translate(1160,1377)"/>
<path d="M0 0 C0.66 0.33 1.32 0.66 2 1 C-2.625 6.875 -2.625 6.875 -6 8 C-4.55746343 4.63408134 -2.66735273 2.48952921 0 0 Z " fill="#0F3331" transform="translate(1214,1182)"/>
<path d="" fill="#007F7F" transform="translate(0,0)"/>
<path d="M0 0 C2 1 2 1 2 1 Z " fill="#FFFFFF" transform="translate(1201,1646)"/>
<path d="M0 0 C2 1 2 1 2 1 Z " fill="#FFFFFF" transform="translate(1203,1645)"/>
<path d="" fill="#AAAAAA" transform="translate(0,0)"/>
<path d="" fill="#FFFFFF" transform="translate(0,0)"/>
</svg>
